<svg xmlns="http://www.w3.org/2000/svg" width="37.321" height="32.656" viewBox="0 0 37.321 32.656"><defs><style>.a{fill:#1e6437;}</style></defs><path class="a" d="M-93.012,14a2.247,2.247,0,0,1,1.649.683,2.247,2.247,0,0,1,.683,1.649,2.247,2.247,0,0,1-.683,1.649,2.247,2.247,0,0,1-1.649.683h-.273l-2.1,12.064a2.252,2.252,0,0,1-.8,1.385,2.27,2.27,0,0,1-1.494.547H-121a2.27,2.27,0,0,1-1.494-.547,2.252,2.252,0,0,1-.8-1.385l-2.1-12.064h-.273a2.247,2.247,0,0,1-1.649-.683A2.247,2.247,0,0,1-128,16.328a2.247,2.247,0,0,1,.683-1.649A2.247,2.247,0,0,1-125.667,14Zm-26.15,14.578a1.121,1.121,0,0,0,.793-.41,1.128,1.128,0,0,0,.282-.847l-.583-7.581a1.121,1.121,0,0,0-.41-.793,1.128,1.128,0,0,0-.847-.282,1.121,1.121,0,0,0-.793.41,1.128,1.128,0,0,0-.282.847l.583,7.581a1.127,1.127,0,0,0,.374.765,1.133,1.133,0,0,0,.793.31Zm7.49-1.166V19.827a1.121,1.121,0,0,0-.346-.82,1.121,1.121,0,0,0-.82-.346,1.121,1.121,0,0,0-.82.346,1.121,1.121,0,0,0-.346.82v7.581a1.121,1.121,0,0,0,.346.82,1.121,1.121,0,0,0,.82.346,1.121,1.121,0,0,0,.82-.346A1.121,1.121,0,0,0-111.672,27.407Zm7,0V19.827a1.121,1.121,0,0,0-.346-.82,1.121,1.121,0,0,0-.82-.346,1.121,1.121,0,0,0-.82.346,1.121,1.121,0,0,0-.346.82v7.581a1.121,1.121,0,0,0,.346.82,1.121,1.121,0,0,0,.82.346,1.121,1.121,0,0,0,.82-.346A1.121,1.121,0,0,0-104.675,27.407Zm6.414.091.583-7.581a1.128,1.128,0,0,0-.282-.847,1.121,1.121,0,0,0-.793-.41,1.128,1.128,0,0,0-.847.282,1.121,1.121,0,0,0-.41.793l-.583,7.581a1.128,1.128,0,0,0,.282.847,1.121,1.121,0,0,0,.793.41h.091a1.133,1.133,0,0,0,.793-.31A1.127,1.127,0,0,0-98.26,27.5ZM-119.326,5.321l-1.695,7.508h-2.405l1.841-8.036a4.434,4.434,0,0,1,1.622-2.615,4.564,4.564,0,0,1,2.916-1.011H-114a1.121,1.121,0,0,1,.346-.82,1.121,1.121,0,0,1,.82-.346h7a1.121,1.121,0,0,1,.82.346,1.121,1.121,0,0,1,.346.82h3.043a4.564,4.564,0,0,1,2.916,1.011,4.434,4.434,0,0,1,1.622,2.615l1.841,8.036h-2.405l-1.695-7.508a2.391,2.391,0,0,0-.829-1.312,2.233,2.233,0,0,0-1.449-.51h-3.043a1.121,1.121,0,0,1-.346.82,1.121,1.121,0,0,1-.82.346h-7a1.121,1.121,0,0,1-.82-.346A1.121,1.121,0,0,1-114,3.5h-3.043a2.233,2.233,0,0,0-1.449.51A2.391,2.391,0,0,0-119.326,5.321Z" transform="translate(128)"/></svg>